<svg width="398" height="100" viewBox="0 0 398 100" fill="none" xmlns="http://www.w3.org/2000/svg">
<g id="home_button">
<rect width="398" height="100" fill="white"/>
<g id="text">
<path id="Offline" d="M125.211 50.0195C125.211 51.6914 124.93 53.1523 124.367 54.4023C123.805 55.6445 123.008 56.5938 121.977 57.25C120.945 57.9062 119.742 58.2344 118.367 58.2344C117.023 58.2344 115.832 57.9062 114.793 57.25C113.754 56.5859 112.945 55.6445 112.367 54.4258C111.797 53.1992 111.504 51.7812 111.488 50.1719V48.9414C111.488 47.3008 111.773 45.8516 112.344 44.5938C112.914 43.3359 113.719 42.375 114.758 41.7109C115.805 41.0391 117 40.7031 118.344 40.7031C119.711 40.7031 120.914 41.0352 121.953 41.6992C123 42.3555 123.805 43.3125 124.367 44.5703C124.93 45.8203 125.211 47.2773 125.211 48.9414V50.0195ZM122.973 48.918C122.973 46.8945 122.566 45.3438 121.754 44.2656C120.941 43.1797 119.805 42.6367 118.344 42.6367C116.922 42.6367 115.801 43.1797 114.98 44.2656C114.168 45.3438 113.75 46.8438 113.727 48.7656V50.0195C113.727 51.9805 114.137 53.5234 114.957 54.6484C115.785 55.7656 116.922 56.3242 118.367 56.3242C119.82 56.3242 120.945 55.7969 121.742 54.7422C122.539 53.6797 122.949 52.1602 122.973 50.1836V48.918ZM129.312 58V46.9961H127.309V45.3203H129.312V44.0195C129.312 42.6602 129.676 41.6094 130.402 40.8672C131.129 40.125 132.156 39.7539 133.484 39.7539C133.984 39.7539 134.48 39.8203 134.973 39.9531L134.855 41.7109C134.488 41.6406 134.098 41.6055 133.684 41.6055C132.98 41.6055 132.438 41.8125 132.055 42.2266C131.672 42.6328 131.48 43.2188 131.48 43.9844V45.3203H136.168V43.9375C136.176 42.5859 136.555 41.5508 137.305 40.832C138.055 40.1133 139.121 39.7539 140.504 39.7539C141.293 39.7539 142.855 39.9922 145.191 40.4688V58H143.023V41.8398C142.055 41.6836 141.273 41.6055 140.68 41.6055C139.117 41.6055 138.336 42.4258 138.336 44.0664V45.3203H141.043V46.9961H138.336V58H136.168V46.9961H131.48V58H129.312ZM151.086 58H148.918V45.3203H151.086V58ZM148.742 41.957C148.742 41.6055 148.848 41.3086 149.059 41.0664C149.277 40.8242 149.598 40.7031 150.02 40.7031C150.441 40.7031 150.762 40.8242 150.98 41.0664C151.199 41.3086 151.309 41.6055 151.309 41.957C151.309 42.3086 151.199 42.6016 150.98 42.8359C150.762 43.0703 150.441 43.1875 150.02 43.1875C149.598 43.1875 149.277 43.0703 149.059 42.8359C148.848 42.6016 148.742 42.3086 148.742 41.957ZM156.617 45.3203L156.688 46.9141C157.656 45.6953 158.922 45.0859 160.484 45.0859C163.164 45.0859 164.516 46.5977 164.539 49.6211V58H162.371V49.6094C162.363 48.6953 162.152 48.0195 161.738 47.582C161.332 47.1445 160.695 46.9258 159.828 46.9258C159.125 46.9258 158.508 47.1133 157.977 47.4883C157.445 47.8633 157.031 48.3555 156.734 48.9648V58H154.566V45.3203H156.617ZM173.07 58.2344C171.352 58.2344 169.953 57.6719 168.875 56.5469C167.797 55.4141 167.258 53.9023 167.258 52.0117V51.6133C167.258 50.3555 167.496 49.2344 167.973 48.25C168.457 47.2578 169.129 46.4844 169.988 45.9297C170.855 45.3672 171.793 45.0859 172.801 45.0859C174.449 45.0859 175.73 45.6289 176.645 46.7148C177.559 47.8008 178.016 49.3555 178.016 51.3789V52.2812H169.426C169.457 53.5312 169.82 54.543 170.516 55.3164C171.219 56.082 172.109 56.4648 173.188 56.4648C173.953 56.4648 174.602 56.3086 175.133 55.9961C175.664 55.6836 176.129 55.2695 176.527 54.7539L177.852 55.7852C176.789 57.418 175.195 58.2344 173.07 58.2344ZM172.801 46.8672C171.926 46.8672 171.191 47.1875 170.598 47.8281C170.004 48.4609 169.637 49.3516 169.496 50.5H175.848V50.3359C175.785 49.2344 175.488 48.3828 174.957 47.7812C174.426 47.1719 173.707 46.8672 172.801 46.8672Z" fill="white"/>
<rect id="text_back" x="14" y="25" width="274" height="50" fill="#00FF00" fill-opacity="0.5"/>
</g>
<rect id="beginning" y="10" width="13" height="80" fill="#666666"/>
<rect id="move" x="13" y="25" width="50" height="50" fill="#00FF00"/>
</g>
</svg>
