<svg width="521" height="275" viewBox="0 0 521 275" fill="none" xmlns="http://www.w3.org/2000/svg">
<g id="intro">
<rect id="apple" x="23" y="70" width="100" height="100" fill="#FF4E4E"/>
<g id="Snake">
<rect id="snake" x="163" y="31" width="358" height="178" fill="#18AA00"/>
<rect id="eye" x="177" y="46" width="48" height="47" fill="#373737"/>
<path id="dev" d="M287.424 99.3701C287.424 100.555 287.171 101.48 286.665 102.146C286.159 102.806 285.453 103.137 284.546 103.137C283.744 103.137 283.104 102.829 282.625 102.214L282.536 103H280.759V92.5H282.734V96.2666C283.19 95.7334 283.789 95.4668 284.532 95.4668C285.435 95.4668 286.141 95.7995 286.651 96.4648C287.166 97.1257 287.424 98.0576 287.424 99.2607V99.3701ZM285.448 99.2266C285.448 98.4792 285.33 97.9346 285.093 97.5928C284.856 97.2464 284.503 97.0732 284.033 97.0732C283.404 97.0732 282.971 97.3307 282.734 97.8457V100.765C282.976 101.284 283.413 101.544 284.047 101.544C284.685 101.544 285.104 101.229 285.305 100.601C285.4 100.3 285.448 99.8418 285.448 99.2266ZM291.327 100.204L292.694 95.6035H294.813L291.84 104.148L291.676 104.538C291.234 105.504 290.505 105.987 289.488 105.987C289.201 105.987 288.91 105.944 288.613 105.857V104.36L288.914 104.367C289.288 104.367 289.566 104.31 289.748 104.196C289.935 104.082 290.081 103.893 290.186 103.629L290.418 103.021L287.827 95.6035H289.953L291.327 100.204ZM304.828 100.949H301.232L300.549 103H298.368L302.073 93.0469H303.974L307.699 103H305.519L304.828 100.949ZM301.786 99.2881H304.274L303.023 95.5625L301.786 99.2881ZM310.584 103H308.602V92.5H310.584V103ZM315.622 103.137C314.537 103.137 313.653 102.804 312.97 102.139C312.291 101.473 311.951 100.587 311.951 99.4795V99.2881C311.951 98.5452 312.095 97.8822 312.382 97.2988C312.669 96.7109 313.075 96.2598 313.599 95.9453C314.127 95.6263 314.729 95.4668 315.403 95.4668C316.415 95.4668 317.21 95.7858 317.789 96.4238C318.372 97.0618 318.664 97.9665 318.664 99.1377V99.9443H313.954C314.018 100.427 314.209 100.815 314.528 101.106C314.852 101.398 315.26 101.544 315.752 101.544C316.513 101.544 317.108 101.268 317.536 100.717L318.507 101.804C318.211 102.223 317.81 102.551 317.304 102.788C316.798 103.021 316.237 103.137 315.622 103.137ZM315.396 97.0664C315.005 97.0664 314.686 97.1986 314.439 97.4629C314.198 97.7272 314.043 98.1055 313.975 98.5977H316.723V98.4404C316.714 98.0029 316.595 97.6657 316.367 97.4287C316.139 97.1872 315.816 97.0664 315.396 97.0664ZM322.608 97.8115L323.853 95.6035H325.965L323.859 99.2266L326.054 103H323.935L322.615 100.676L321.303 103H319.177L321.371 99.2266L319.272 95.6035H321.392L322.608 97.8115ZM331.201 103C331.11 102.822 331.044 102.601 331.003 102.337C330.524 102.87 329.902 103.137 329.137 103.137C328.412 103.137 327.811 102.927 327.332 102.508C326.858 102.089 326.621 101.56 326.621 100.922C326.621 100.138 326.91 99.5365 327.489 99.1172C328.073 98.6979 328.913 98.486 330.012 98.4814H330.921V98.0576C330.921 97.7158 330.832 97.4424 330.654 97.2373C330.481 97.0322 330.205 96.9297 329.827 96.9297C329.494 96.9297 329.232 97.0094 329.041 97.1689C328.854 97.3285 328.761 97.5472 328.761 97.8252H326.785C326.785 97.3968 326.917 97.0003 327.182 96.6357C327.446 96.2712 327.82 95.9863 328.303 95.7812C328.786 95.5716 329.328 95.4668 329.93 95.4668C330.841 95.4668 331.563 95.6969 332.097 96.1572C332.634 96.613 332.903 97.2555 332.903 98.085V101.291C332.908 101.993 333.006 102.524 333.197 102.884V103H331.201ZM329.567 101.626C329.859 101.626 330.128 101.562 330.374 101.435C330.62 101.302 330.802 101.127 330.921 100.908V99.6367H330.183C329.194 99.6367 328.667 99.9785 328.604 100.662L328.597 100.778C328.597 101.024 328.683 101.227 328.856 101.387C329.03 101.546 329.267 101.626 329.567 101.626ZM336.239 95.6035L336.301 96.458C336.829 95.7972 337.538 95.4668 338.427 95.4668C339.211 95.4668 339.794 95.6969 340.177 96.1572C340.56 96.6175 340.756 97.3057 340.765 98.2217V103H338.789V98.2695C338.789 97.8503 338.698 97.5472 338.516 97.3604C338.333 97.1689 338.03 97.0732 337.606 97.0732C337.05 97.0732 336.633 97.3102 336.355 97.7842V103H334.38V95.6035H336.239ZM341.961 99.2471C341.961 98.0941 342.218 97.1758 342.733 96.4922C343.253 95.8086 343.962 95.4668 344.859 95.4668C345.579 95.4668 346.174 95.7357 346.644 96.2734V92.5H348.626V103H346.842L346.746 102.214C346.254 102.829 345.62 103.137 344.846 103.137C343.975 103.137 343.276 102.795 342.747 102.111C342.223 101.423 341.961 100.468 341.961 99.2471ZM343.937 99.3906C343.937 100.083 344.057 100.614 344.299 100.983C344.54 101.353 344.891 101.537 345.352 101.537C345.962 101.537 346.393 101.28 346.644 100.765V97.8457C346.397 97.3307 345.971 97.0732 345.365 97.0732C344.413 97.0732 343.937 97.8457 343.937 99.3906ZM353.562 103.137C352.477 103.137 351.593 102.804 350.909 102.139C350.23 101.473 349.891 100.587 349.891 99.4795V99.2881C349.891 98.5452 350.034 97.8822 350.321 97.2988C350.608 96.7109 351.014 96.2598 351.538 95.9453C352.067 95.6263 352.668 95.4668 353.343 95.4668C354.354 95.4668 355.15 95.7858 355.729 96.4238C356.312 97.0618 356.604 97.9665 356.604 99.1377V99.9443H351.894C351.957 100.427 352.149 100.815 352.468 101.106C352.791 101.398 353.199 101.544 353.691 101.544C354.452 101.544 355.047 101.268 355.476 100.717L356.446 101.804C356.15 102.223 355.749 102.551 355.243 102.788C354.737 103.021 354.177 103.137 353.562 103.137ZM353.336 97.0664C352.944 97.0664 352.625 97.1986 352.379 97.4629C352.137 97.7272 351.982 98.1055 351.914 98.5977H354.662V98.4404C354.653 98.0029 354.535 97.6657 354.307 97.4287C354.079 97.1872 353.755 97.0664 353.336 97.0664ZM361.888 97.4561C361.619 97.4196 361.382 97.4014 361.177 97.4014C360.429 97.4014 359.939 97.6543 359.707 98.1602V103H357.731V95.6035H359.598L359.652 96.4854C360.049 95.8063 360.598 95.4668 361.3 95.4668C361.519 95.4668 361.724 95.4964 361.915 95.5557L361.888 97.4561ZM369.141 93.0469L371.697 100.266L374.24 93.0469H376.934V103H374.876V100.279L375.081 95.583L372.395 103H370.986L368.307 95.5898L368.512 100.279V103H366.461V93.0469H369.141ZM382.881 103C382.79 102.822 382.724 102.601 382.683 102.337C382.204 102.87 381.582 103.137 380.816 103.137C380.092 103.137 379.49 102.927 379.012 102.508C378.538 102.089 378.301 101.56 378.301 100.922C378.301 100.138 378.59 99.5365 379.169 99.1172C379.752 98.6979 380.593 98.486 381.691 98.4814H382.601V98.0576C382.601 97.7158 382.512 97.4424 382.334 97.2373C382.161 97.0322 381.885 96.9297 381.507 96.9297C381.174 96.9297 380.912 97.0094 380.721 97.1689C380.534 97.3285 380.44 97.5472 380.44 97.8252H378.465C378.465 97.3968 378.597 97.0003 378.861 96.6357C379.126 96.2712 379.499 95.9863 379.982 95.7812C380.465 95.5716 381.008 95.4668 381.609 95.4668C382.521 95.4668 383.243 95.6969 383.776 96.1572C384.314 96.613 384.583 97.2555 384.583 98.085V101.291C384.588 101.993 384.686 102.524 384.877 102.884V103H382.881ZM381.247 101.626C381.539 101.626 381.808 101.562 382.054 101.435C382.3 101.302 382.482 101.127 382.601 100.908V99.6367H381.862C380.873 99.6367 380.347 99.9785 380.283 100.662L380.276 100.778C380.276 101.024 380.363 101.227 380.536 101.387C380.709 101.546 380.946 101.626 381.247 101.626ZM388.186 103H386.203V92.5H388.186V103ZM392.896 101.544C393.26 101.544 393.556 101.444 393.784 101.243C394.012 101.043 394.131 100.776 394.14 100.443H395.992C395.988 100.945 395.851 101.405 395.582 101.824C395.313 102.239 394.944 102.562 394.475 102.795C394.01 103.023 393.495 103.137 392.93 103.137C391.872 103.137 391.038 102.802 390.428 102.132C389.817 101.457 389.512 100.528 389.512 99.3428V99.2129C389.512 98.0736 389.815 97.1644 390.421 96.4854C391.027 95.8063 391.859 95.4668 392.916 95.4668C393.841 95.4668 394.582 95.7311 395.138 96.2598C395.698 96.7839 395.983 97.4834 395.992 98.3584H394.14C394.131 97.9756 394.012 97.6657 393.784 97.4287C393.556 97.1872 393.256 97.0664 392.882 97.0664C392.422 97.0664 392.073 97.235 391.836 97.5723C391.604 97.9049 391.487 98.4473 391.487 99.1992V99.4043C391.487 100.165 391.604 100.712 391.836 101.045C392.068 101.378 392.422 101.544 392.896 101.544ZM399.048 96.4102C399.572 95.7812 400.23 95.4668 401.023 95.4668C402.628 95.4668 403.441 96.3988 403.464 98.2627V103H401.488V98.3174C401.488 97.8936 401.397 97.5814 401.215 97.3809C401.033 97.1758 400.729 97.0732 400.306 97.0732C399.727 97.0732 399.308 97.2965 399.048 97.7432V103H397.072V92.5H399.048V96.4102ZM408.358 103.137C407.274 103.137 406.39 102.804 405.706 102.139C405.027 101.473 404.688 100.587 404.688 99.4795V99.2881C404.688 98.5452 404.831 97.8822 405.118 97.2988C405.405 96.7109 405.811 96.2598 406.335 95.9453C406.864 95.6263 407.465 95.4668 408.14 95.4668C409.151 95.4668 409.947 95.7858 410.525 96.4238C411.109 97.0618 411.4 97.9665 411.4 99.1377V99.9443H406.69C406.754 100.427 406.946 100.815 407.265 101.106C407.588 101.398 407.996 101.544 408.488 101.544C409.249 101.544 409.844 101.268 410.272 100.717L411.243 101.804C410.947 102.223 410.546 102.551 410.04 102.788C409.534 103.021 408.974 103.137 408.358 103.137ZM408.133 97.0664C407.741 97.0664 407.422 97.1986 407.176 97.4629C406.934 97.7272 406.779 98.1055 406.711 98.5977H409.459V98.4404C409.45 98.0029 409.331 97.6657 409.104 97.4287C408.876 97.1872 408.552 97.0664 408.133 97.0664ZM415.201 100.587L416.575 95.6035H418.64L416.145 103H414.258L411.763 95.6035H413.827L415.201 100.587Z" fill="#E2E2E2"/>
</g>
</g>
</svg>
